<svg xmlns="http://www.w3.org/2000/svg" xmlns:xlink="http://www.w3.org/1999/xlink" width="22.6" height="19.831" viewBox="0 0 22.6 19.831">
  <defs>
    <clipPath id="clip-path">
      <rect id="Прямоугольник_148191" data-name="Прямоугольник 148191" width="22.6" height="19.831" fill="#fff"/>
    </clipPath>
  </defs>
  <g id="Сгруппировать_76074" data-name="Сгруппировать 76074" clip-path="url(#clip-path)">
    <path id="Контур_3254" data-name="Контур 3254" d="M0,18.068V3.133a.85.85,0,0,1,.89-.491c1.839.015,3.678.006,5.517.006h.259c0-.227,0-.418,0-.609A1.987,1.987,0,0,1,8.706.007C10.434,0,12.163-.005,13.892.014a2.273,2.273,0,0,1,.912.2,1.914,1.914,0,0,1,1.13,1.818c.005.2,0,.4,0,.611h.3c1.839,0,3.678.007,5.517-.005a.759.759,0,0,1,.848.534V18.068a4.208,4.208,0,0,1-.2.624A1.973,1.973,0,0,1,20.49,19.83H8.641q-3.266,0-6.531,0A1.927,1.927,0,0,1,.4,19.008a5.134,5.134,0,0,1-.4-.939M21.276,7.511h-.043l-.969,2.9A2.006,2.006,0,0,1,18.179,11.9H14.61c0,.234,0,.433,0,.631a.659.659,0,0,1-.7.689q-2.615.005-5.23,0a.658.658,0,0,1-.692-.694c0-.2,0-.406,0-.626h-3.6A2,2,0,0,1,2.34,10.423q-.461-1.376-.922-2.752C1.4,7.614,1.374,7.56,1.352,7.5l-.028.008v.2q0,4.988,0,9.977c0,.588.237.822.832.822H20.449c.591,0,.827-.236.827-.827q0-4.977,0-9.955ZM14.61,10.578h3.552a.736.736,0,0,0,.857-.617L20.94,4.2c.024-.072.046-.144.07-.22H1.592c.013.044.02.072.029.1q1,2.983,1.993,5.965a.678.678,0,0,0,.741.529q1.688,0,3.376,0H7.99c0-.224,0-.427,0-.631a.655.655,0,0,1,.675-.688q2.637-.007,5.273,0a.652.652,0,0,1,.67.671c.006.2,0,.41,0,.648m0-7.941c0-.174,0-.353,0-.533a.685.685,0,0,0-.786-.778H10.561c-.625,0-1.249,0-1.874,0A.65.65,0,0,0,8,1.907c-.022.238,0,.48,0,.73Zm-1.334,7.957H9.331v1.295h3.945Z" transform="translate(0 0)" fill="#fff"/>
  </g>
</svg>
