<svg xmlns="http://www.w3.org/2000/svg" xmlns:xlink="http://www.w3.org/1999/xlink" width="21.044" height="20.984" viewBox="0 0 21.044 20.984"><defs><clipPath id="a"><rect width="21.044" height="20.984" fill="none"/></clipPath></defs><g clip-path="url(#a)"><path d="M15.739.073a5.545,5.545,0,0,1,5.177,5.163,22.207,22.207,0,0,1,.128,2.221c0,2.513,0,5.027-.065,7.539a5.949,5.949,0,0,1-1.818,4.388,5.872,5.872,0,0,1-4.061,1.56c-3.063.047-6.127.06-9.189,0a5.679,5.679,0,0,1-4.873-2.511,5.99,5.99,0,0,1-1-3.323C0,12.019-.025,8.931.041,5.845A5.645,5.645,0,0,1,2.549,1.009,6.3,6.3,0,0,1,5.98,0m.478,1.873a5.492,5.492,0,0,0-2.539.538A3.538,3.538,0,0,0,1.976,5.631c-.063,3.2-.088,6.412,0,9.615A3.621,3.621,0,0,0,5.74,19.007q4.768.13,9.542,0a3.625,3.625,0,0,0,3.752-3.742q.127-4.786,0-9.578a3.671,3.671,0,0,0-3.749-3.753" transform="translate(0 0.001)" fill="#fff"/><path d="M81.652,75.85a5.418,5.418,0,1,1-5.4-5.419,5.412,5.412,0,0,1,5.4,5.419m-1.9.01a3.518,3.518,0,1,0-3.52,3.508,3.523,3.523,0,0,0,3.52-3.508" transform="translate(-65.73 -65.372)" fill="#fff"/><path d="M209.7,51.074a1.261,1.261,0,1,1-1.251-1.255,1.255,1.255,0,0,1,1.251,1.255" transform="translate(-192.294 -46.241)" fill="#fff"/></g></svg>