<svg xmlns="http://www.w3.org/2000/svg" xmlns:xlink="http://www.w3.org/1999/xlink" width="19.472" height="19.43" viewBox="0 0 19.472 19.43"><defs><clipPath id="a"><rect width="19.472" height="19.43" fill="none"/></clipPath></defs><g clip-path="url(#a)"><path d="M72.006,64.287h3.813v1.745a.976.976,0,0,0,.152-.127,4.131,4.131,0,0,1,3.576-1.949,7.289,7.289,0,0,1,1.993.231,3.621,3.621,0,0,1,2.708,3.057A15.591,15.591,0,0,1,84.53,70c.039,2.307.014,4.615.014,6.923,0,.094-.011.188-.018.307H80.515c0-.141,0-.279,0-.418,0-2.079.007-4.159-.008-6.238a8.276,8.276,0,0,0-.14-1.467,1.753,1.753,0,0,0-1.541-1.579,2.191,2.191,0,0,0-2.447,1.1,4.641,4.641,0,0,0-.392,2.106c-.009,2.019,0,4.039,0,6.058,0,.141,0,.281,0,.442H72.006Z" transform="translate(-65.08 -57.803)" fill="#fff"/><rect width="3.975" height="12.943" transform="translate(0.368 6.484)" fill="#fff"/><path d="M2.314,4.686A2.331,2.331,0,0,1,0,2.33,2.357,2.357,0,0,1,2.352,0a2.343,2.343,0,1,1-.037,4.686" transform="translate(0 0)" fill="#fff"/></g></svg>