<svg version="1.1" id="Layer_1" xmlns="http://www.w3.org/2000/svg" xmlns:xlink="http://www.w3.org/1999/xlink" x="0" y="0" viewBox="0 0 306.7 56.6" xml:space="preserve"><style type="text/css">.st10{fill:#00953b}.st15{fill:#cfd1d0}</style><defs><path id="SVGID_1_" d="M9.9 20.7h72.9v36H9.9z"/></defs><clipPath id="SVGID_2_"><use xlink:href="#SVGID_1_" overflow="visible"/></clipPath><g clip-path="url(#SVGID_2_)"><defs><path id="SVGID_3_" d="M9.9 20.7h72.9v36H9.9z"/></defs><clipPath id="SVGID_4_"><use xlink:href="#SVGID_3_" overflow="visible"/></clipPath><path d="M42.3 56.8h-.2c-13.3-.1-21.4-5.1-24.5-7-5.7-3.5-7.7-6.4-7.7-6.4l63.8-22.6s4.2 3.5 5.2 4.4 3.2 3.1 3.7 3.5.2 1 0 1.3c-.3.6-2.7 5.6-7.7 11.3-4.3 4.8-16.7 15.5-32.6 15.5" clip-path="url(#SVGID_4_)" fill="#cfd1d0"/></g><defs><path id="SVGID_5_" d="M43.6.3c-8.1 0-13.4 1.9-14 2.1C2.9 10.4.1 40.2.1 40.2c22.5 17.6 41.2 11.4 43.1 10.9 25.2-6.6 33.1-34.2 34.3-38.9v-.8C64.4 2.5 52.4.3 43.6.3z"/></defs><clipPath id="SVGID_6_"><use xlink:href="#SVGID_5_" overflow="visible"/></clipPath><path clip-path="url(#SVGID_6_)" fill="#00953b" d="M-1.6 24.1h18.9v38.1H-1.6z"/><defs><path id="SVGID_7_" d="M43.6.3c-8.1 0-13.4 1.9-14 2.1C2.9 10.4.1 40.2.1 40.2c22.5 17.6 41.2 11.4 43.1 10.9 25.2-6.6 33.1-34.2 34.3-38.9v-.8C64.4 2.5 52.4.3 43.6.3z"/></defs><clipPath id="SVGID_8_"><use xlink:href="#SVGID_7_" overflow="visible"/></clipPath><path clip-path="url(#SVGID_8_)" fill="#fff" d="M17.2 26.7h16.9v35.6H17.2z"/><defs><path id="SVGID_9_" d="M43.6.3c-8.1 0-13.4 1.9-14 2.1C2.9 10.4.1 40.2.1 40.2c22.5 17.6 41.2 11.4 43.1 10.9 25.2-6.6 33.1-34.2 34.3-38.9v-.8C64.4 2.5 52.4.3 43.6.3z"/></defs><clipPath id="SVGID_10_"><use xlink:href="#SVGID_9_" overflow="visible"/></clipPath><path clip-path="url(#SVGID_10_)" fill="#cf3732" d="M34.1 26.7h19.1v35.6H34.1z"/><linearGradient id="SVGID_11_" gradientUnits="userSpaceOnUse" x1="471.06" y1="34.2" x2="471.457" y2="34.2" gradientTransform="matrix(1 0 0 -1 0 58)"><stop offset="0" stop-color="#005b27"/><stop offset=".085" stop-color="#00702e"/><stop offset=".189" stop-color="#008034"/><stop offset=".317" stop-color="#008c38"/><stop offset=".498" stop-color="#00933a"/><stop offset="1" stop-color="#00953b"/></linearGradient><path id="SVGID_15_" d="M11.6 13.7C9.3 16.4 5.7 22 4.7 24.6c-.8 1.9-3.5 8.9 7.5 6 0 0 13.6 16.5 38.5 16.8.1 0 .6-.1 1.1-.1.5-.1 1-.1 1.1-.1h.1c.1 0 .3-.2.3-.2 2.2-1.3 10.7-6 17.3-18.2 6.1-11.2 6.8-17.3 6.8-17.3S63.6.2 43.4.2C23.3.2 14 10.8 11.6 13.7" fill="url(#SVGID_11_)"/><defs><path id="SVGID_12_" d="M11.6 13.7C9.3 16.4 5.7 22 4.7 24.6c-.8 1.9-3.5 8.9 7.5 6 0 0 13.6 16.5 38.5 16.8.1 0 .6-.1 1.1-.1.5-.1 1-.1 1.1-.1h.1c.1 0 .3-.2.3-.2 2.2-1.3 10.7-6 17.3-18.2 6.1-11.2 6.8-17.3 6.8-17.3S63.6.2 43.4.2C23.3.2 14 10.8 11.6 13.7"/></defs><clipPath id="SVGID_13_"><use xlink:href="#SVGID_12_" overflow="visible"/></clipPath><linearGradient id="SVGID_14_" gradientUnits="userSpaceOnUse" x1="-1219.681" y1="176.871" x2="-1219.387" y2="176.871" gradientTransform="rotate(-60 -138005.668 -175119.766) scale(180.9367)"><stop offset="0" stop-color="#00321a"/><stop offset=".022" stop-color="#023c21"/><stop offset=".092" stop-color="#075733"/><stop offset=".173" stop-color="#0b6d42"/><stop offset=".267" stop-color="#0e7e4d"/><stop offset=".383" stop-color="#108955"/><stop offset=".547" stop-color="#12905a"/><stop offset="1" stop-color="#12925b"/></linearGradient><path clip-path="url(#SVGID_13_)" fill="url(#SVGID_14_)" d="M-19.3 35.6l39.5-68.4L97.8 12 58.3 80.4z"/><path d="M46.7 20H43v14.4h3.6V25c0-2.8 4.4-2.8 4.4 0v9.4h3.6V25c0-2.9 4.4-2.6 4.4 0v9.4h3.6v-9.9c0-6.1-7.1-5.7-9.2-3.7 0 0-3-3-6.9.1V20" fill="#fff"/><path d="M37.4 31.3v-3.8h-2.8s-2.9-.2-2.9 1.9c0 2 2.9 1.9 2.9 1.9h2.8zm3.6 3.1h-3.6v-1c-.5 1.2-2.3 1-2.3 1h-1.4c-5.1 0-5.6-3.2-5.6-4.9 0-2.9 1.2-5.2 5.5-5.2h3.9c0-.8-.8-1.7-2.4-1.7h-4.4v-3.2h5.4c4.5 0 4.9 4 4.9 5.5v9.5zM18.1 24.3h3.3c1.9-.2 3.4-.9 3.4-3 0-.6-.3-2.7-3.4-2.9h-3.3v5.9m-3.5 10.1v-19h6.1c5.2 0 6.9 2.5 7.3 3.3.5 1.1 2.3 6.3-3.7 8.3-1.5.5-3 .4-6.1.4v7h-3.6z" fill-rule="evenodd" clip-rule="evenodd" fill="#fff"/><defs><path id="SVGID_16_" d="M23.6 42.7c9.2 3.9 18.3 5.8 29.4 4.4-23.1.8-37-13.3-40.9-16.6-5.5 1.4-6.5.4-7.7-.3 7.1 7.2 10 8.6 19.2 12.5"/></defs><clipPath id="SVGID_17_"><use xlink:href="#SVGID_16_" overflow="visible"/></clipPath><linearGradient id="SVGID_18_" gradientUnits="userSpaceOnUse" x1="-1220.351" y1="187.455" x2="-1220.057" y2="187.455" gradientTransform="rotate(-56 -38636.666 -51847.426) scale(49.1979)"><stop offset="0" stop-color="#797d7d"/><stop offset=".025" stop-color="#898c8c"/><stop offset=".084" stop-color="#a8abab"/><stop offset=".151" stop-color="#c4c5c5"/><stop offset=".226" stop-color="#dadbdb"/><stop offset=".314" stop-color="#ebebeb"/><stop offset=".423" stop-color="#f6f7f7"/><stop offset=".576" stop-color="#fdfdfd"/><stop offset="1" stop-color="#fff"/></linearGradient><path clip-path="url(#SVGID_17_)" fill="url(#SVGID_18_)" d="M-4 42.8l23.6-35L61.4 36 37.8 71z"/><path class="st10" d="M216.7 15.7h1.6c6.3 0 10.1 3.5 10.1 9.3 0 5.8-3.8 9.2-10.1 9.2h-1.6V30h1.5c3.8 0 5.4-1.8 5.4-5.1s-1.7-5.1-5.4-5.1h-1.5v-4.1zm-5.5 0h4.8v4.1h-4.8z"/><path fill="#00ab61" d="M211.2 20.5h4.8v4.1h-4.8z"/><path fill="#5fc186" d="M211.2 25.3h4.8v4.1h-4.8z"/><path fill="#98d6ad" d="M211.2 30.1h4.8v4.1h-4.8z"/><path fill="#ccead5" d="M211.2 34.9h4.8V39h-4.8z"/><path class="st15" d="M121.2 39h-2.9l-4.5-6.4c-.8.1-1.6.2-2.5.2h-2.8V39H106V15.7h5.3c6.4 0 9.7 3.6 9.7 8.6 0 3.5-1.6 6.2-4.9 7.6l5.1 7.1zm-10-8.3c5.3 0 7.2-2.7 7.2-6.4s-2-6.4-7.2-6.4h-2.6v12.8h2.6zm15.4-15h14.2v2.2H129v10.9h10.5V31H129v5.8h12.2V39h-14.7V15.7zm25 2.2h-7.2v-2.2h16.8v2.2H154V39h-2.5V17.9zm19-2.5h.4l9.9 23.6h-2.6l-1.6-3.9h-11.8l-1.5 3.9H161l9.6-23.6zm5.2 17.6l-4.1-10.4c-.4-1.1-.9-2.8-.9-2.8s-.5 1.7-.9 2.8L165.7 33h10.1zm9.6-17.3h2.5V39h-2.5V15.7zm9 0h2.5v21.1h11V39h-13.5V15.7z"/><path class="st10" d="M250 39h-5.6l-3.8-5.9c-.4.1-.9.1-1.4.1h-1.6V39h-4.8V15.7h6.5c6.5 0 10.4 3.1 10.4 8.8 0 3.6-1.6 5.9-4.5 7.2L250 39zm-10.9-9.9c3.9 0 5.6-1.2 5.6-4.5s-1.8-4.6-5.6-4.6h-1.5v9.1h1.5zm13.9-1.7c0-6.9 5.4-12 12.1-12s12.1 5.1 12.1 12-5.4 12-12.1 12-12.1-5.1-12.1-12zm19.2 0c0-4.4-2.9-7.7-7.1-7.7S258 23 258 27.4s2.9 7.7 7.1 7.7 7.1-3.4 7.1-7.7z"/><path class="st15" d="M280.6 37.4l.8-.4c.4.7 1 1.3 2.2 1.3 1 0 1.8-.6 1.8-1.5s-.5-1.3-1.6-1.8l-.7-.3c-1.2-.6-1.9-1.2-1.9-2.4s1-2.1 2.3-2.1c1.2 0 1.9.5 2.3 1.3l-.7.5c-.3-.5-.8-.9-1.6-.9-.9 0-1.4.5-1.4 1.2 0 .8.4 1.1 1.4 1.6l.7.3c1.4.6 2.2 1.3 2.2 2.6 0 1.4-1.1 2.3-2.7 2.3-1.7 0-2.6-.8-3.1-1.7zm8.6-3.6h.9v1.1c.4-.7 1.1-1.2 2-1.2 1.4 0 2.5 1.2 2.5 2.7 0 1.6-1.1 2.7-2.6 2.7-.9 0-1.7-.5-2-1.2v3.8h-.9v-7.9zm4.6 2.6c0-1.1-.7-1.9-1.8-1.9s-1.9.8-1.9 1.9c0 1.1.7 2 1.9 2 1.1 0 1.8-.9 1.8-2zm7.2-6.1h.2l3.7 8.7h-1l-.6-1.4h-4.4l-.6 1.4h-.9l3.6-8.7zm1.9 6.5l-1.5-3.8c-.2-.4-.3-1-.3-1s-.2.6-.3 1l-1.5 3.8h3.6zm-15.5 1.5h.8v.7h-.8zm8.3 0h.8v.7h-.8zm10.2 0h.8v.7h-.8z"/></svg>